<svg width="624" height="151" viewBox="0 0 624 151" fill="none" xmlns="http://www.w3.org/2000/svg">
<rect width="624" height="151" fill="none"/>
<path d="M12.05 124.6C8.65 124.6 5.8 123.15 3.5 120.25C1.3 117.35 0.2 113.65 0.2 109.15C0.2 105.55 0.8 102 2 98.5C3.2 95.1 4.8 91.85 6.8 88.75C8.9 85.65 11.25 82.75 13.85 80.05C17.25 76.55 21.1 73.5 25.4 70.9C29.8 68.3 33.8 67 37.4 67C40.2 67 42.35 67.7 43.85 69.1C45.45 70.4 46.25 72 46.25 73.9C46.25 75.1 45.85 76.4 45.05 77.8C47.65 78.1 50.2 78.25 52.7 78.25C54.6 78.25 56.5 78.15 58.4 77.95C60.3 77.75 62.2 77.45 64.1 77.05H64.7C65.5 77.05 65.9 77.25 65.9 77.65C65.9 78.05 65.45 78.4 64.55 78.7C63.55 79.1 61.9 79.5 59.6 79.9C57.3 80.3 54.9 80.65 52.4 80.95C49.9 81.15 47.65 81.25 45.65 81.25C44.95 81.25 44.35 81.25 43.85 81.25C43.35 81.25 42.9 81.2 42.5 81.1L41 81.85C42.2 83.55 42.8 85.9 42.8 88.9C42.8 92.9 41.8 97 39.8 101.2C37.9 105.3 35.35 109.15 32.15 112.75C29.05 116.25 25.7 119.1 22.1 121.3C18.6 123.5 15.25 124.6 12.05 124.6ZM13.4 121C16.1 121 18.75 120.05 21.35 118.15C23.95 116.15 26.3 113.6 28.4 110.5C30.6 107.3 32.4 103.9 33.8 100.3C35.3 96.6 36.3 93.05 36.8 89.65C36.9 89.05 36.95 88.5 36.95 88C36.95 87.4 36.95 86.85 36.95 86.35C36.95 85.45 36.9 84.65 36.8 83.95C36.7 83.15 36.5 82.55 36.2 82.15C36 82.15 35.85 82.1 35.75 82C34.55 81.8 33.65 81.5 33.05 81.1C32.55 80.7 31.95 80.25 31.25 79.75C30.85 79.25 30.65 78.65 30.65 77.95C30.65 77.25 30.9 76.7 31.4 76.3C32 75.9 32.65 75.8 33.35 76C35.85 76.5 38.55 76.95 41.45 77.35C42.45 75.65 42.95 74.1 42.95 72.7C42.95 70.3 41.15 69.1 37.55 69.1C35.35 69.1 33.05 69.95 30.65 71.65C28.35 73.25 26.05 75.4 23.75 78.1C21.45 80.7 19.25 83.6 17.15 86.8C15.05 89.9 13.25 92.95 11.75 95.95C10.75 97.95 9.85 100.4 9.05 103.3C8.35 106.2 8 109 8 111.7C8 114.2 8.4 116.4 9.2 118.3C10.1 120.1 11.5 121 13.4 121ZM78.8012 124.45C76.8012 124.45 75.3512 123.8 74.4512 122.5C73.5512 121.2 73.1012 119.45 73.1012 117.25C73.1012 114.65 73.6012 111.55 74.6012 107.95C75.7012 104.25 77.0012 100.5 78.5012 96.7C77.1012 98.9 75.4512 101.3 73.5512 103.9C71.6512 106.5 69.6512 108.95 67.5512 111.25C65.4512 113.55 63.3512 115.45 61.2512 116.95C59.2512 118.45 57.4012 119.2 55.7012 119.2C52.9012 119.2 50.9512 118.25 49.8512 116.35C48.8512 114.45 48.3512 112.25 48.3512 109.75C48.3512 108.15 48.4512 106.6 48.6512 105.1C48.9512 103.5 49.3012 102.1 49.7012 100.9C51.5012 95.8 53.8512 90.45 56.7512 84.85C59.6512 79.15 62.8012 73.7 66.2012 68.5C69.7012 63.3 73.2512 58.8 76.8512 55C79.2512 52.6 81.0512 51.4 82.2512 51.4C82.8512 51.4 83.1512 51.75 83.1512 52.45C83.1512 53.15 82.8012 54.15 82.1012 55.45C81.5012 56.75 80.5012 58.25 79.1012 59.95C78.0012 61.25 76.5012 63.65 74.6012 67.15C72.7012 70.55 70.6512 74.45 68.4512 78.85C66.2512 83.15 64.1512 87.45 62.1512 91.75C60.2512 96.05 58.6512 99.8 57.3512 103C56.5512 104.9 55.9512 106.6 55.5512 108.1C55.2512 109.6 55.1012 110.85 55.1012 111.85C55.1012 114.25 55.9012 115.45 57.5012 115.45C59.6012 115.45 62.3012 113.5 65.6012 109.6C66.4012 108.6 67.5512 107.1 69.0512 105.1C70.5512 103 72.1512 100.75 73.8512 98.35C75.6512 95.85 77.3512 93.45 78.9512 91.15C80.5512 88.85 81.8512 86.95 82.8512 85.45L86.3012 79.15C86.8012 78.15 87.8012 77.35 89.3012 76.75C90.9012 76.05 92.3512 75.7 93.6512 75.7C94.5512 75.7 95.0012 76.15 95.0012 77.05C95.0012 78.15 94.7512 79.3 94.2512 80.5C93.8512 81.6 93.2512 82.8 92.4512 84.1C90.9512 86.5 89.5012 89.35 88.1012 92.65C86.7012 95.95 85.4512 99.15 84.3512 102.25C83.3512 105.35 82.7012 107.8 82.4012 109.6C82.0012 111.3 81.8012 113 81.8012 114.7C81.8012 115.1 81.8012 115.5 81.8012 115.9C81.9012 116.3 82.0012 116.65 82.1012 116.95C82.3012 118.25 82.8012 118.9 83.6012 118.9C84.0012 118.9 84.5012 118.75 85.1012 118.45C87.3012 117.35 89.5012 115.8 91.7012 113.8C93.9012 111.7 96.0012 109.5 98.0012 107.2C99.0012 106.1 99.9512 105.05 100.851 104.05C101.751 103.05 102.601 102 103.401 100.9C103.701 100.6 103.951 100.45 104.151 100.45C104.751 100.45 105.051 100.85 105.051 101.65C105.051 102.25 104.851 102.75 104.451 103.15L97.8512 111.1C96.7512 112.4 95.6012 113.7 94.4012 115C93.2012 116.2 92.0512 117.35 90.9512 118.45C88.9512 120.35 86.8512 121.85 84.6512 122.95C82.4512 123.95 80.5012 124.45 78.8012 124.45ZM102.903 150.4C101.003 150.4 99.3531 149.6 97.9531 148C96.5531 146.4 95.8531 143.9 95.8531 140.5C95.8531 138.6 96.0531 136.65 96.4531 134.65C96.6531 133.65 97.0531 131.7 97.6531 128.8C98.2531 125.9 98.9531 122.95 99.7531 119.95C100.653 116.25 101.903 112.05 103.503 107.35C105.103 102.55 107.053 97.5 109.353 92.2C111.053 88 112.803 84.05 114.603 80.35C116.403 76.65 118.203 73.05 120.003 69.55H99.3031C98.2031 69.55 97.6531 69.3 97.6531 68.8C97.6531 67.7 98.7531 67.15 100.953 67.15H121.353C123.853 62.65 126.453 58.4 129.153 54.4C131.853 50.4 134.853 46.65 138.153 43.15C139.853 41.15 141.403 39.75 142.803 38.95C144.303 38.15 145.803 37.6 147.303 37.3C148.903 36.9 150.653 36.5 152.553 36.1C147.953 41.7 143.903 47 140.403 52C137.003 56.9 133.803 61.95 130.803 67.15H153.003C154.203 67.15 154.803 67.45 154.803 68.05C154.803 68.35 154.503 68.7 153.903 69.1C153.403 69.4 152.603 69.55 151.503 69.55H129.453C127.053 73.75 124.753 78.2 122.553 82.9C120.353 87.5 118.003 92.55 115.503 98.05C113.403 102.65 111.503 107.6 109.803 112.9C108.203 118.1 106.903 122.9 105.903 127.3C104.903 131.7 104.403 134.85 104.403 136.75C104.403 141.35 105.653 143.65 108.153 143.65C109.353 143.65 110.853 143.05 112.653 141.85C116.553 139.45 120.053 136.95 123.153 134.35C126.253 131.85 129.203 129.2 132.003 126.4C133.503 125 135.253 123.2 137.253 121C139.353 118.8 141.453 116.55 143.553 114.25C145.653 111.95 147.503 109.9 149.103 108.1L151.653 105.25C151.953 104.95 152.203 104.8 152.403 104.8C153.003 104.8 153.303 105.2 153.303 106C153.303 106.5 153.103 107 152.703 107.5C152.203 108.3 151.653 109.05 151.053 109.75C150.353 110.45 149.703 111.2 149.103 112C144.803 117.3 140.053 122.65 134.853 128.05C129.653 133.45 124.303 138.4 118.803 142.9C116.503 144.7 114.103 146.4 111.603 148C109.103 149.6 106.203 150.4 102.903 150.4ZM184.476 124.6C180.476 124.6 178.476 122 178.476 116.8C178.476 115 178.776 113 179.376 110.8C179.576 110.1 180.026 108.95 180.726 107.35C181.426 105.75 182.226 104 183.126 102.1C184.026 100.1 184.876 98.25 185.676 96.55C186.476 94.75 187.026 93.35 187.326 92.35C185.226 95.55 182.876 98.75 180.276 101.95C177.776 105.05 175.076 107.65 172.176 109.75C169.276 111.85 166.176 112.9 162.876 112.9C159.776 112.8 157.576 111.95 156.276 110.35C154.976 108.75 154.326 106.8 154.326 104.5C154.326 101.8 154.926 98.85 156.126 95.65C157.326 92.45 158.676 89.6 160.176 87.1C162.776 83 165.926 79 169.626 75.1C173.326 71.2 177.276 68 181.476 65.5C185.676 62.9 189.676 61.6 193.476 61.6C195.476 61.6 197.426 61.95 199.326 62.65C201.226 63.25 203.126 64.3 205.026 65.8C206.526 67 207.276 68.3 207.276 69.7C207.276 71.1 206.676 71.8 205.476 71.8C204.576 71.8 203.926 71.2 203.526 70C202.226 66.6 200.126 64.9 197.226 64.9C194.626 64.9 191.726 66.05 188.526 68.35C185.326 70.65 182.176 73.4 179.076 76.6C175.576 80.1 172.476 83.95 169.776 88.15C167.076 92.35 165.026 96.15 163.626 99.55C162.326 102.65 161.676 104.95 161.676 106.45C161.676 108.35 162.426 109.3 163.926 109.3C165.626 109.3 168.126 108 171.426 105.4C173.626 103.7 176.026 101.5 178.626 98.8C181.226 96 183.676 93.25 185.976 90.55C188.276 87.85 190.076 85.75 191.376 84.25C192.476 82.55 193.376 81.2 194.076 80.2C194.476 79.6 195.126 79.15 196.026 78.85C196.926 78.55 197.876 78.4 198.876 78.4C200.076 78.4 201.076 78.65 201.876 79.15C202.676 79.55 202.876 80.2 202.476 81.1C202.076 82 201.176 83.75 199.776 86.35C198.476 88.85 196.976 91.7 195.276 94.9C193.676 98.1 192.126 101.15 190.626 104.05C189.226 106.95 188.176 109.2 187.476 110.8C186.076 113.9 185.376 116.2 185.376 117.7C185.376 119 185.876 119.65 186.876 119.65C187.576 119.65 188.626 119.25 190.026 118.45C192.226 117.35 194.426 115.8 196.626 113.8C198.826 111.7 200.926 109.5 202.926 107.2C204.026 106.1 205.026 105.05 205.926 104.05C206.826 103.05 207.676 102 208.476 100.9C208.776 100.6 209.026 100.45 209.226 100.45C209.826 100.45 210.126 100.9 210.126 101.8C210.126 102.3 209.926 102.75 209.526 103.15C208.426 104.55 207.326 105.9 206.226 107.2C205.126 108.5 203.976 109.8 202.776 111.1C201.676 112.4 200.526 113.7 199.326 115C198.226 116.2 197.076 117.35 195.876 118.45C193.676 120.55 191.576 122.1 189.576 123.1C187.676 124.1 185.976 124.6 184.476 124.6ZM238.236 124.6C234.236 124.6 232.236 122 232.236 116.8C232.236 115 232.536 113 233.136 110.8C233.336 110.1 233.786 108.95 234.486 107.35C235.186 105.75 235.986 104 236.886 102.1C237.786 100.1 238.636 98.25 239.436 96.55C240.236 94.75 240.786 93.35 241.086 92.35C238.986 95.55 236.636 98.75 234.036 101.95C231.536 105.05 228.836 107.65 225.936 109.75C223.036 111.85 219.936 112.9 216.636 112.9C213.536 112.8 211.336 111.95 210.036 110.35C208.736 108.75 208.086 106.8 208.086 104.5C208.086 101.8 208.686 98.85 209.886 95.65C211.086 92.45 212.436 89.6 213.936 87.1C216.536 83 219.686 79 223.386 75.1C227.086 71.2 231.036 68 235.236 65.5C239.436 62.9 243.436 61.6 247.236 61.6C249.236 61.6 251.186 61.95 253.086 62.65C254.986 63.25 256.886 64.3 258.786 65.8C260.286 67 261.036 68.3 261.036 69.7C261.036 71.1 260.436 71.8 259.236 71.8C258.336 71.8 257.686 71.2 257.286 70C255.986 66.6 253.886 64.9 250.986 64.9C248.386 64.9 245.486 66.05 242.286 68.35C239.086 70.65 235.936 73.4 232.836 76.6C229.336 80.1 226.236 83.95 223.536 88.15C220.836 92.35 218.786 96.15 217.386 99.55C216.086 102.65 215.436 104.95 215.436 106.45C215.436 108.35 216.186 109.3 217.686 109.3C219.386 109.3 221.886 108 225.186 105.4C227.386 103.7 229.786 101.5 232.386 98.8C234.986 96 237.436 93.25 239.736 90.55C242.036 87.85 243.836 85.75 245.136 84.25C246.236 82.55 247.136 81.2 247.836 80.2C248.236 79.6 248.886 79.15 249.786 78.85C250.686 78.55 251.636 78.4 252.636 78.4C253.836 78.4 254.836 78.65 255.636 79.15C256.436 79.55 256.636 80.2 256.236 81.1C255.836 82 254.936 83.75 253.536 86.35C252.236 88.85 250.736 91.7 249.036 94.9C247.436 98.1 245.886 101.15 244.386 104.05C242.986 106.95 241.936 109.2 241.236 110.8C239.836 113.9 239.136 116.2 239.136 117.7C239.136 119 239.636 119.65 240.636 119.65C241.336 119.65 242.386 119.25 243.786 118.45C245.986 117.35 248.186 115.8 250.386 113.8C252.586 111.7 254.686 109.5 256.686 107.2C257.786 106.1 258.786 105.05 259.686 104.05C260.586 103.05 261.436 102 262.236 100.9C262.536 100.6 262.786 100.45 262.986 100.45C263.586 100.45 263.886 100.9 263.886 101.8C263.886 102.3 263.686 102.75 263.286 103.15C262.186 104.55 261.086 105.9 259.986 107.2C258.886 108.5 257.736 109.8 256.536 111.1C255.436 112.4 254.286 113.7 253.086 115C251.986 116.2 250.836 117.35 249.636 118.45C247.436 120.55 245.336 122.1 243.336 123.1C241.436 124.1 239.736 124.6 238.236 124.6ZM294.084 136.15C289.984 136.15 287.134 134.9 285.534 132.4C283.934 130 283.134 127.05 283.134 123.55C283.134 120.35 283.584 117 284.484 113.5C285.384 109.9 286.334 106.65 287.334 103.75C288.634 100.05 290.384 95.75 292.584 90.85C294.884 85.95 297.184 81.3 299.484 76.9C296.584 77.9 293.784 78.7 291.084 79.3C288.384 79.8 286.034 80.05 284.034 80.05C282.634 80.05 281.484 79.9 280.584 79.6C279.084 79.3 278.334 78.85 278.334 78.25C278.334 77.55 279.284 77.35 281.184 77.65C281.584 77.75 281.934 77.8 282.234 77.8C282.634 77.8 283.034 77.8 283.434 77.8C285.934 77.8 288.634 77.4 291.534 76.6C294.534 75.8 297.734 74.75 301.134 73.45C306.534 63.65 312.484 54.35 318.984 45.55C325.584 36.65 332.634 28.75 340.134 21.85C342.734 19.25 345.734 17.25 349.134 15.85C352.534 14.35 355.634 13.6 358.434 13.6C360.634 13.6 362.484 14.15 363.984 15.25C365.584 16.25 366.484 17.9 366.684 20.2C366.784 20.6 366.834 21.25 366.834 22.15C366.834 24.35 366.284 26.7 365.184 29.2C363.684 32.3 361.584 35.45 358.884 38.65C356.184 41.85 352.984 45.05 349.284 48.25C347.384 49.85 345.434 51.45 343.434 53.05C341.534 54.55 339.534 56 337.434 57.4C333.134 60.3 328.684 63.05 324.084 65.65C319.584 68.15 315.184 70.35 310.884 72.25C308.784 76.05 306.834 79.85 305.034 83.65C303.234 87.45 301.634 91.1 300.234 94.6C299.034 97.4 297.784 100.45 296.484 103.75C295.184 107.05 294.184 109.55 293.484 111.25C292.584 113.35 291.784 115.75 291.084 118.45C290.484 121.15 290.184 123.65 290.184 125.95C290.184 127.95 290.534 129.65 291.234 131.05C291.934 132.45 293.184 133.15 294.984 133.15C296.584 133.15 298.234 132.4 299.934 130.9C301.634 129.5 303.284 127.7 304.884 125.5C306.484 123.3 307.934 121.1 309.234 118.9C310.534 116.7 311.734 114.3 312.834 111.7C314.034 109 315.034 106.4 315.834 103.9C316.634 101.4 317.084 99.35 317.184 97.75L317.334 95.8C314.634 95 313.284 92.7 313.284 88.9C313.284 86.6 313.734 84.6 314.634 82.9C315.534 81.2 316.634 80.35 317.934 80.35C319.534 80.35 320.584 81.1 321.084 82.6C321.684 84.1 321.984 85.95 321.984 88.15C321.984 90.65 321.734 93.3 321.234 96.1C321.734 96.4 322.784 96.7 324.384 97C326.084 97.2 327.434 97.3 328.434 97.3C331.934 97.3 334.884 96.2 337.284 94C339.784 91.8 342.134 89.25 344.334 86.35C344.634 86.05 344.884 85.9 345.084 85.9C345.684 85.9 345.984 86.45 345.984 87.55C345.984 87.95 345.884 88.45 345.684 89.05C343.384 92.45 340.834 95.2 338.034 97.3C335.234 99.3 331.984 100.3 328.284 100.3C326.084 100.3 323.684 99.85 321.084 98.95L320.184 102.1L319.284 104.95C318.384 107.35 317.084 110.3 315.384 113.8C313.684 117.2 311.684 120.6 309.384 124C307.184 127.5 304.734 130.4 302.034 132.7C299.434 135 296.784 136.15 294.084 136.15ZM311.634 68.95C318.534 65.35 325.384 61.45 332.184 57.25C338.984 53.05 345.084 48.35 350.484 43.15C355.884 37.85 359.934 31.95 362.634 25.45C363.234 23.95 363.534 22.65 363.534 21.55C363.534 18.75 362.084 17.35 359.184 17.35C357.184 17.35 354.734 18.2 351.834 19.9C349.634 21.2 346.784 23.65 343.284 27.25C339.784 30.85 336.034 35.1 332.034 40C328.134 44.9 324.384 49.9 320.784 55C317.184 60.1 314.134 64.75 311.634 68.95ZM342.037 149.2C338.937 149.2 336.687 148.4 335.287 146.8C333.987 145.3 333.337 143.3 333.337 140.8C333.337 139.2 333.637 137.3 334.237 135.1C335.037 131.7 336.387 128 338.287 124C340.287 120.1 342.037 117 343.537 114.7C344.737 112.9 345.937 111.05 347.137 109.15C348.337 107.25 349.587 105.3 350.887 103.3L358.237 91.6C359.637 89.4 360.337 87.2 360.337 85C360.337 82.6 359.387 80.75 357.487 79.45L355.387 78.1C354.587 77.6 353.987 77.15 353.587 76.75L351.487 80.2L349.387 83.5C347.287 86.4 344.887 89.6 342.187 93.1C339.487 96.6 336.887 99.95 334.387 103.15C331.887 106.35 329.787 108.9 328.087 110.8C327.787 111.1 327.487 111.25 327.187 111.25C326.687 111.25 326.337 111 326.137 110.5C325.837 110 325.887 109.55 326.287 109.15C330.187 104.75 333.937 100.25 337.537 95.65C341.237 90.95 344.587 86.05 347.587 80.95L349.387 77.95L351.187 74.8C350.387 74.3 349.637 73.4 348.937 72.1C348.237 70.7 347.887 69.4 347.887 68.2C347.887 66.5 348.587 65.5 349.987 65.2H350.137C351.137 65.2 352.137 65.8 353.137 67C354.137 68.4 354.587 70.95 354.487 74.65C356.887 76.45 359.237 77.65 361.537 78.25C363.837 78.85 365.687 79.6 367.087 80.5C368.587 81.3 369.337 82.9 369.337 85.3C369.337 85.7 369.287 86.15 369.187 86.65C369.187 87.15 369.137 87.65 369.037 88.15C368.537 90.55 367.237 93.5 365.137 97C363.137 100.5 360.887 104.1 358.387 107.8C355.887 111.4 353.737 114.55 351.937 117.25C350.137 120.15 348.237 123.3 346.237 126.7C344.237 130.2 342.587 133.5 341.287 136.6C340.087 139.7 339.687 142.15 340.087 143.95C340.387 144.95 341.087 145.45 342.187 145.45C343.787 145.45 345.737 144.8 348.037 143.5C351.137 141.7 353.987 139.75 356.587 137.65C359.187 135.65 361.887 133.25 364.687 130.45C366.187 128.95 368.087 126.85 370.387 124.15C372.787 121.55 375.287 118.75 377.887 115.75C380.487 112.65 382.887 109.85 385.087 107.35C385.987 106.15 386.987 104.95 388.087 103.75L391.087 100.45C391.387 100.15 391.637 100 391.837 100C392.437 100 392.737 100.4 392.737 101.2C392.737 101.5 392.487 102 391.987 102.7C390.987 104.1 389.837 105.55 388.537 107.05C387.337 108.55 386.187 109.95 385.087 111.25C382.487 114.25 379.587 117.65 376.387 121.45C373.287 125.15 370.137 128.8 366.937 132.4C363.837 136 360.837 139.1 357.937 141.7C355.637 143.7 353.237 145.45 350.737 146.95C348.237 148.45 345.337 149.2 342.037 149.2ZM420.463 124.6C416.463 124.6 414.463 122 414.463 116.8C414.463 115 414.763 113 415.363 110.8C415.563 110.1 416.013 108.95 416.713 107.35C417.413 105.75 418.213 104 419.113 102.1C420.013 100.1 420.863 98.25 421.663 96.55C422.463 94.75 423.013 93.35 423.313 92.35C421.213 95.55 418.863 98.75 416.263 101.95C413.763 105.05 411.063 107.65 408.163 109.75C405.263 111.85 402.163 112.9 398.863 112.9C395.763 112.8 393.563 111.95 392.263 110.35C390.963 108.75 390.313 106.8 390.313 104.5C390.313 101.8 390.913 98.85 392.113 95.65C393.313 92.45 394.663 89.6 396.163 87.1C398.763 83 401.913 79 405.613 75.1C409.313 71.2 413.263 68 417.463 65.5C421.663 62.9 425.663 61.6 429.463 61.6C431.463 61.6 433.413 61.95 435.313 62.65C437.213 63.25 439.113 64.3 441.013 65.8C442.513 67 443.263 68.3 443.263 69.7C443.263 71.1 442.663 71.8 441.463 71.8C440.563 71.8 439.913 71.2 439.513 70C438.213 66.6 436.113 64.9 433.213 64.9C430.613 64.9 427.713 66.05 424.513 68.35C421.313 70.65 418.163 73.4 415.063 76.6C411.563 80.1 408.463 83.95 405.763 88.15C403.063 92.35 401.013 96.15 399.613 99.55C398.313 102.65 397.663 104.95 397.663 106.45C397.663 108.35 398.413 109.3 399.913 109.3C401.613 109.3 404.113 108 407.413 105.4C409.613 103.7 412.013 101.5 414.613 98.8C417.213 96 419.663 93.25 421.963 90.55C424.263 87.85 426.063 85.75 427.363 84.25C428.463 82.55 429.363 81.2 430.063 80.2C430.463 79.6 431.113 79.15 432.013 78.85C432.913 78.55 433.863 78.4 434.863 78.4C436.063 78.4 437.063 78.65 437.863 79.15C438.663 79.55 438.863 80.2 438.463 81.1C438.063 82 437.163 83.75 435.763 86.35C434.463 88.85 432.963 91.7 431.263 94.9C429.663 98.1 428.113 101.15 426.613 104.05C425.213 106.95 424.163 109.2 423.463 110.8C422.063 113.9 421.363 116.2 421.363 117.7C421.363 119 421.863 119.65 422.863 119.65C423.563 119.65 424.613 119.25 426.013 118.45C428.213 117.35 430.413 115.8 432.613 113.8C434.813 111.7 436.913 109.5 438.913 107.2C440.013 106.1 441.013 105.05 441.913 104.05C442.813 103.05 443.663 102 444.463 100.9C444.763 100.6 445.013 100.45 445.213 100.45C445.813 100.45 446.113 100.9 446.113 101.8C446.113 102.3 445.913 102.75 445.513 103.15C444.413 104.55 443.313 105.9 442.213 107.2C441.113 108.5 439.963 109.8 438.763 111.1C437.663 112.4 436.513 113.7 435.313 115C434.213 116.2 433.063 117.35 431.863 118.45C429.663 120.55 427.563 122.1 425.563 123.1C423.663 124.1 421.963 124.6 420.463 124.6ZM462.822 144.4C459.922 144.4 457.922 143.6 456.822 142C455.722 140.5 455.172 138.3 455.172 135.4C455.172 132.2 456.022 128.55 457.722 124.45C459.422 120.45 461.422 116.5 463.722 112.6C466.022 108.6 468.122 105.1 470.022 102.1C470.422 101.5 471.122 100.4 472.122 98.8C473.122 97.1 474.272 95.2 475.572 93.1C476.872 91 478.072 89.05 479.172 87.25C480.272 85.35 481.072 83.85 481.572 82.75C482.972 79.95 483.672 77.9 483.672 76.6C483.672 75.8 483.372 75.4 482.772 75.4C481.272 75.4 478.172 77.45 473.472 81.55C471.672 83.25 469.422 85.5 466.722 88.3C464.022 91.1 461.172 94.2 458.172 97.6C455.272 100.9 452.522 104.35 449.922 107.95C447.422 111.55 445.422 115 443.922 118.3C443.322 119.6 442.622 120.55 441.822 121.15C441.122 121.65 440.422 121.9 439.722 121.9C438.022 121.9 437.172 120.95 437.172 119.05C437.172 118.35 437.322 117.65 437.622 116.95C438.622 114.15 440.072 110.5 441.972 106C443.872 101.4 445.922 96.5 448.122 91.3C450.322 86.1 452.472 81.1 454.572 76.3C456.772 71.5 458.622 67.45 460.122 64.15C458.022 64.75 456.122 65.25 454.422 65.65C452.722 66.05 451.222 66.25 449.922 66.25C449.122 66.25 448.572 66.2 448.272 66.1C447.172 65.8 446.622 65.5 446.622 65.2C446.622 64.9 447.272 64.7 448.572 64.6C450.072 64.6 451.922 64.35 454.122 63.85C456.322 63.25 458.722 62.5 461.322 61.6C462.922 58.1 464.822 54.15 467.022 49.75C469.222 45.35 471.722 40.9 474.522 36.4C477.322 31.9 480.372 27.5 483.672 23.2C486.972 18.9 490.572 15.1 494.472 11.8C498.372 8.5 502.522 5.85 506.922 3.84999C511.322 1.74999 515.972 0.699996 520.872 0.699996C523.472 0.699996 525.522 1.54999 527.022 3.24999C528.522 4.84999 529.272 7.14999 529.272 10.15C529.272 12.95 528.372 15.9 526.572 19C524.772 22.2 522.322 25.4 519.222 28.6C516.122 31.7 512.572 34.8 508.572 37.9C504.472 41 500.222 43.95 495.822 46.75C491.422 49.55 486.922 52.15 482.322 54.55C477.722 56.95 473.372 59 469.272 60.7C465.872 67.5 462.622 74.4 459.522 81.4C456.422 88.3 453.622 94.9 451.122 101.2C451.822 100.2 453.072 98.65 454.872 96.55C456.672 94.45 458.672 92.2 460.872 89.8C463.072 87.4 465.072 85.3 466.872 83.5C468.872 81.6 471.122 79.65 473.622 77.65C476.222 75.55 478.722 73.85 481.122 72.55C483.622 71.15 485.822 70.45 487.722 70.45C489.722 70.45 491.122 70.85 491.922 71.65C492.822 72.45 493.272 73.55 493.272 74.95C493.272 77.05 492.572 79.5 491.172 82.3C489.872 85.1 488.522 87.7 487.122 90.1C486.422 91.4 485.172 93.4 483.372 96.1C481.672 98.8 479.872 101.6 477.972 104.5C476.072 107.4 474.572 109.75 473.472 111.55C471.972 113.75 470.372 116.25 468.672 119.05C467.072 121.85 465.622 124.5 464.322 127C463.122 129.6 462.422 131.6 462.222 133C462.122 133.6 462.022 134.1 461.922 134.5C461.922 135 461.922 135.5 461.922 136C461.922 138.4 462.822 139.6 464.622 139.6C465.522 139.6 466.422 139.4 467.322 139C468.322 138.7 469.722 137.75 471.522 136.15C473.422 134.65 475.372 132.85 477.372 130.75C479.372 128.75 481.272 126.75 483.072 124.75C484.872 122.85 486.222 121.35 487.122 120.25L498.222 107.35C498.722 106.75 499.222 106.2 499.722 105.7C500.322 105.1 500.872 104.5 501.372 103.9C502.272 102.7 503.222 101.55 504.222 100.45C504.522 100.15 504.822 100 505.122 100C505.722 100 506.022 100.35 506.022 101.05C506.022 101.45 505.772 102 505.272 102.7C504.172 104.1 502.972 105.55 501.672 107.05C500.472 108.55 499.322 109.95 498.222 111.25C497.422 112.25 496.172 113.8 494.472 115.9C492.872 118 491.122 120.25 489.222 122.65C487.322 125.05 485.522 127.2 483.822 129.1C481.822 131.3 479.572 133.6 477.072 136C474.572 138.4 472.072 140.4 469.572 142C467.072 143.6 464.822 144.4 462.822 144.4ZM471.072 57.4C474.972 55.6 479.022 53.5 483.222 51.1C487.322 48.8 491.372 46.35 495.372 43.75C499.372 41.05 503.172 38.25 506.772 35.35C510.272 32.55 513.372 29.65 516.072 26.65C518.872 23.65 521.022 20.75 522.522 17.95C524.022 15.05 524.772 12.25 524.772 9.55C524.772 8.65 524.572 7.75 524.172 6.85C523.772 5.95 522.572 5.5 520.572 5.5C517.472 5.5 514.322 6.34999 511.122 8.04999C507.922 9.64999 504.772 11.8 501.672 14.5C498.672 17.1 495.872 19.9 493.272 22.9C490.672 25.8 488.422 28.55 486.522 31.15C481.522 37.95 476.372 46.7 471.072 57.4ZM533.395 58.45C530.795 58.45 529.495 57.2 529.495 54.7C529.495 53.2 530.045 51.95 531.145 50.95C532.245 49.85 533.445 49.3 534.745 49.3C536.045 49.3 537.045 49.75 537.745 50.65C538.545 51.55 538.845 52.65 538.645 53.95C538.345 55.25 537.695 56.35 536.695 57.25C535.795 58.05 534.695 58.45 533.395 58.45ZM509.095 124C503.895 124 501.295 120.75 501.295 114.25C501.295 112.85 501.445 111.25 501.745 109.45C502.145 107.35 502.895 104.85 503.995 101.95C505.195 98.95 506.495 96 507.895 93.1C509.395 90.1 510.745 87.55 511.945 85.45C512.945 83.85 514.095 81.95 515.395 79.75C516.695 77.55 517.945 75.5 519.145 73.6C520.345 71.7 521.095 70.45 521.395 69.85C521.995 68.55 523.195 67.55 524.995 66.85C526.795 66.05 528.395 65.65 529.795 65.65C531.395 65.65 532.195 66.1 532.195 67C532.195 67.6 531.995 68.15 531.595 68.65C529.695 71.75 527.445 75.35 524.845 79.45C522.345 83.55 519.895 87.75 517.495 92.05C515.095 96.35 513.095 100.45 511.495 104.35C509.895 108.25 509.095 111.6 509.095 114.4C509.095 115.9 509.345 117.1 509.845 118C510.445 118.9 511.495 119.35 512.995 119.35C514.595 119.35 516.395 118.6 518.395 117.1C520.495 115.5 522.495 113.75 524.395 111.85C526.395 109.85 527.895 108.3 528.895 107.2L531.895 104.05C532.395 103.55 532.845 103.05 533.245 102.55C533.645 101.95 534.045 101.4 534.445 100.9C534.745 100.6 534.995 100.45 535.195 100.45C535.795 100.45 536.095 100.9 536.095 101.8C536.095 102.3 535.895 102.75 535.495 103.15C534.395 104.55 533.295 105.9 532.195 107.2C531.095 108.5 529.945 109.8 528.745 111.1C526.245 114.1 523.345 117 520.045 119.8C516.745 122.6 513.095 124 509.095 124ZM575.114 150.4C573.014 150.4 571.264 149.4 569.864 147.4C568.564 145.5 567.914 143.2 567.914 140.5C567.914 139.8 567.964 139.1 568.064 138.4C568.264 137.7 568.414 137 568.514 136.3C569.014 134.3 569.764 131.85 570.764 128.95C571.864 126.15 573.114 123.15 574.514 119.95C576.014 116.75 577.464 113.7 578.864 110.8C580.364 107.9 581.764 105.4 583.064 103.3C583.564 102.6 584.364 101.35 585.464 99.55C586.564 97.65 587.714 95.65 588.914 93.55C590.114 91.35 591.164 89.45 592.064 87.85C593.864 84.65 594.764 82.4 594.764 81.1C594.764 79.4 593.014 80 589.514 82.9C587.014 85.1 584.164 87.9 580.964 91.3C577.864 94.7 574.764 98.35 571.664 102.25C568.564 106.15 565.764 109.95 563.264 113.65C562.764 114.55 562.014 115.45 561.014 116.35C560.114 117.25 558.864 117.7 557.264 117.7C556.664 117.7 555.964 117.55 555.164 117.25C554.364 116.85 553.964 115.9 553.964 114.4C553.964 112.5 554.764 110.05 556.364 107.05C557.964 103.95 559.914 100.6 562.214 97C564.614 93.4 566.964 89.75 569.264 86.05C571.664 82.35 573.614 78.9 575.114 75.7C575.914 74 576.464 72.6 576.764 71.5C577.164 70.4 577.364 69.55 577.364 68.95C577.364 68.25 577.114 67.9 576.614 67.9C575.414 67.9 573.364 69.2 570.464 71.8C568.464 73.6 566.264 75.8 563.864 78.4C561.364 81.1 558.864 84.05 556.364 87.25C553.864 90.35 551.414 93.55 549.014 96.85C546.614 100.25 544.364 103.5 542.264 106.6C540.064 109.8 538.114 112.75 536.414 115.45C534.714 118.15 533.414 120.4 532.514 122.2C531.814 123.7 530.614 124.45 528.914 124.45C528.114 124.45 527.414 124.1 526.814 123.4C526.114 122.7 525.864 121.7 526.064 120.4C528.864 115.1 531.114 110.3 532.814 106C534.514 101.7 536.114 97.45 537.614 93.25C539.214 89.05 541.314 84.4 543.914 79.3C544.714 77.8 546.164 76.4 548.264 75.1C550.464 73.7 552.314 73 553.814 73C555.414 73 556.214 73.5 556.214 74.5C556.214 75.3 555.714 76.5 554.714 78.1C553.514 80 552.014 82.6 550.214 85.9C548.414 89.2 546.614 92.65 544.814 96.25C543.014 99.75 541.464 102.85 540.164 105.55L544.064 99.85C545.864 97.25 547.914 94.35 550.214 91.15C552.614 87.85 555.214 84.45 558.014 80.95C560.814 77.55 563.614 74.5 566.414 71.8C569.114 69.1 571.714 66.95 574.214 65.35C576.814 63.75 579.114 63.1 581.114 63.4C583.314 63.8 584.814 64.6 585.614 65.8C586.414 67 586.814 68.45 586.814 70.15C586.814 71.25 586.164 72.9 584.864 75.1C583.664 77.3 582.164 79.7 580.364 82.3C578.564 84.9 576.814 87.4 575.114 89.8C573.414 92.2 572.114 94.15 571.214 95.65C570.514 96.85 569.414 98.6 567.914 100.9C566.514 103.1 565.164 105.25 563.864 107.35C562.564 109.45 561.764 110.8 561.464 111.4C561.264 111.9 561.264 112.2 561.464 112.3C561.664 112.4 561.964 112.15 562.364 111.55C563.364 109.95 564.764 107.9 566.564 105.4C568.364 102.8 570.314 100.15 572.414 97.45C574.614 94.65 576.714 92.1 578.714 89.8C580.414 87.8 582.364 85.8 584.564 83.8C586.764 81.7 588.964 79.95 591.164 78.55C593.364 77.15 595.314 76.45 597.014 76.45C599.114 76.45 600.514 77 601.214 78.1C601.914 79.1 602.264 80.3 602.264 81.7C602.264 82.9 601.664 84.8 600.464 87.4C599.264 90 597.664 93.05 595.664 96.55C594.964 97.85 593.864 99.9 592.364 102.7C590.964 105.5 589.464 108.5 587.864 111.7C586.364 114.9 585.064 117.7 583.964 120.1C582.664 122.8 581.314 125.8 579.914 129.1C578.614 132.4 577.464 135.55 576.464 138.55C575.464 141.55 574.864 143.95 574.664 145.75V146.2C574.664 146.9 575.064 147.25 575.864 147.25C575.864 147.35 575.914 147.4 576.014 147.4C576.814 147.4 577.864 147 579.164 146.2C580.264 145.6 581.964 144.15 584.264 141.85C586.664 139.55 589.214 136.95 591.914 134.05C594.614 131.15 597.114 128.4 599.414 125.8C601.814 123.3 603.514 121.45 604.514 120.25L611.564 112C613.464 109.7 614.814 108.15 615.614 107.35L621.614 100.45C621.914 100.15 622.164 100 622.364 100C622.964 100 623.264 100.4 623.264 101.2C623.264 101.7 623.064 102.2 622.664 102.7C621.564 104.1 620.364 105.55 619.064 107.05C617.864 108.55 616.714 109.95 615.614 111.25C615.514 111.35 614.714 112.35 613.214 114.25C611.714 116.15 609.814 118.5 607.514 121.3C605.214 124.1 602.914 126.9 600.614 129.7C598.314 132.6 596.314 135.1 594.614 137.2C592.914 139.3 591.914 140.55 591.614 140.95C589.614 143.25 587.164 145.4 584.264 147.4C581.464 149.4 578.414 150.4 575.114 150.4Z" fill="#615B5B" fill-opacity="0.72"/>
</svg>
